# xmcd CD database file
#
# Track frame offsets:
#	150
#	14039
#	27446
#	38304
#	50503
#	63532
#	79182
#	91673
#	106305
#	119212
#	131604
#	144806
#	157984
#	171931
#	184989
#	196796
#	210555
#	222774
#	238281
#	252856
#
# Disc length: 3566 seconds
#
# Revision: 4
# Processed by: cddbd v1.5.2PL0 Copyright (c) Steve Scherf et al.
# Submitted via: CDex 1.79
#
DISCID=180dec14
DTITLE=Various Artist - Diggin' Deeper: 200 Legendary Blues Treasures [disc 3]
DYEAR=2004
DGENRE=Blues
TTITLE0=Leadbelly - New York City
TTITLE1=Bukka White - When Can I Change My Clothes?
TTITLE2=Lightnin' Hopkins - Short Haired Woman
TTITLE3=Memphis Minnie - I'm Talking About You
TTITLE4=Mississippi John Hurt - Nobody's Dirty Blues
TTITLE5=John Lee Hooker - Landing Blues
TTITLE6=Kokomo Arnold - Long and Tall
TTITLE7=Arthur Crudup - Death Valley Blues
TTITLE8=Brownie McGhee - Born for Bad Luck
TTITLE9=John Lee Williamson - My Black Name Blues
TTITLE10=Muddy Waters - Burr Clover Farm Blues
TTITLE11=Sleepy John Estes - Hobo Jungle Blues
TTITLE12=Big Bill Broonzy - Worrying You Off My Mind, Part 1
TTITLE13=Joe Turner - Nobody in Mind
TTITLE14=Robert Johnson - Come On in My Kitchen
TTITLE15=Jimmy Yancey - La Salle Street Breakdown
TTITLE16=Blind Boy Fuller and Sonny Terry - New Love Blues
TTITLE17=Bessie Smith - Down Hearted Blues
TTITLE18=Ma Rainey - Explaining the Blues
TTITLE19=Blind Willie McTell - Low Rider's Blues
EXTD=10CD: Documents/Membran 222024-321 (2004), EAN 4011222220240, ISBN 978-3-87562-765-8. YEAR: 2004
EXTT0=(Huddie Ledbetter)
EXTT1=(Bukka White)
EXTT2=(Sam Hopkins)
EXTT3=(McCoy/E. Lawler)
EXTT4=(John Hurt)
EXTT5=(John Lee Hooker)
EXTT6=(James Arnold)
EXTT7=(Arthur Crudup/J. McCoy)
EXTT8=(Walter McGhee)
EXTT9=(John Lee Williamson)
EXTT10=(McKinley Morganfield)
EXTT11=(John Estes)
EXTT12=(Bill Broonzy)
EXTT13=(Williams)
EXTT14=(Robert Johnson)
EXTT15=(Jimmy Yancey)
EXTT16=(Sonny Terry)
EXTT17=(A. Hunter/L. Austin)
EXTT18=(trad./Ma Rainey)
EXTT19=(Willie McTell)
PLAYORDER=
